<svg width="24" height="24" viewBox="0 0 24 24" fill="none" xmlns="http://www.w3.org/2000/svg">
<rect width="24" height="24" rx="12" fill="white"/>
<rect x="2" y="2" width="20" height="20" rx="10" fill="#558B2F"/>
<path fill-rule="evenodd" clip-rule="evenodd" d="M14.0597 10.524C14.2305 10.6948 14.2305 10.9718 14.0597 11.1427L11.7264 13.476C11.5555 13.6469 11.2785 13.6469 11.1076 13.476L9.94098 12.3094C9.77012 12.1385 9.77012 11.8615 9.94098 11.6906C10.1118 11.5198 10.3888 11.5198 10.5597 11.6906L11.417 12.548L13.441 10.524C13.6118 10.3531 13.8888 10.3531 14.0597 10.524Z" fill="#F1F8E9"/>
<path fill-rule="evenodd" clip-rule="evenodd" d="M12.2944 6.42601C12.2621 6.3966 12.2262 6.37283 12.1882 6.35479C12.1288 6.32647 12.0645 6.31248 12.0003 6.3125C11.9362 6.31248 11.8719 6.32647 11.8124 6.35479C11.7744 6.37283 11.7386 6.3966 11.7063 6.42601C10.4294 7.55377 8.76395 8.14084 7.06199 8.06296C6.86067 8.05375 6.67909 8.18326 6.62225 8.37662C6.05425 10.3088 6.29412 12.3888 7.28704 14.141C8.27996 15.8932 9.94102 17.1678 11.8905 17.6735C11.9625 17.6922 12.0381 17.6922 12.1102 17.6735C14.0596 17.1678 15.7207 15.8932 16.7136 14.141C17.7065 12.3888 17.9464 10.3088 17.3784 8.37662C17.3216 8.18326 17.14 8.05375 16.9387 8.06296C15.2367 8.14084 13.5712 7.55377 12.2944 6.42601ZM12.0003 7.32129C10.687 8.36915 9.05665 8.9417 7.37602 8.94482C6.98964 10.5568 7.22702 12.2603 8.04831 13.7096C8.9057 15.2227 10.3277 16.3321 12.0003 16.797C13.6729 16.3321 15.095 15.2227 15.9523 13.7096C16.7736 12.2603 17.011 10.5568 16.6246 8.94482C14.944 8.9417 13.3137 8.36915 12.0003 7.32129Z" fill="#F1F8E9"/>
</svg>
