<svg width="12" height="12" viewBox="0 0 12 12" fill="none" xmlns="http://www.w3.org/2000/svg">
<path fill-rule="evenodd" clip-rule="evenodd" d="M8.0597 4.52398C8.23055 4.69483 8.23055 4.97184 8.0597 5.1427L5.72636 7.47603C5.55551 7.64688 5.2785 7.64688 5.10764 7.47603L3.94098 6.30936C3.77012 6.13851 3.77012 5.8615 3.94098 5.69065C4.11183 5.51979 4.38884 5.51979 4.5597 5.69065L5.417 6.54795L7.44098 4.52398C7.61183 4.35312 7.88884 4.35312 8.0597 4.52398Z" fill="#F1F8E9"/>
<path fill-rule="evenodd" clip-rule="evenodd" d="M6.29438 0.426011C6.26205 0.3966 6.22623 0.372833 6.18825 0.354795C6.12876 0.326473 6.06446 0.312476 6.00033 0.3125C5.93619 0.312476 5.8719 0.326473 5.81241 0.354795C5.77442 0.372834 5.7386 0.3966 5.70627 0.426011C4.42941 1.55377 2.76395 2.14084 1.06199 2.06296C0.860666 2.05375 0.679093 2.18326 0.622254 2.37662C0.0542488 4.30884 0.294124 6.3888 1.28704 8.14101C2.27996 9.89321 3.94102 11.1678 5.89048 11.6735C5.96252 11.6922 6.03813 11.6922 6.11017 11.6735C8.05964 11.1678 9.7207 9.89321 10.7136 8.14101C11.7065 6.3888 11.9464 4.30884 11.3784 2.37662C11.3216 2.18326 11.14 2.05375 10.9387 2.06296C9.2367 2.14084 7.57125 1.55377 6.29438 0.426011ZM6.00033 1.32129C4.68697 2.36915 3.05665 2.9417 1.37602 2.94482C0.989637 4.5568 1.22702 6.26029 2.04831 7.70962C2.9057 9.22267 4.32773 10.3321 6.00033 10.797C7.67292 10.3321 9.09495 9.22267 9.95234 7.70962C10.7736 6.26028 11.011 4.5568 10.6246 2.94482C8.944 2.9417 7.31368 2.36915 6.00033 1.32129Z" fill="#F1F8E9"/>
</svg>
