<svg width="36" height="36" viewBox="0 0 36 36" fill="none" xmlns="http://www.w3.org/2000/svg">
<path d="M31.7211 12.4C31.7211 12.4 31.4477 10.4696 30.6055 9.62191C29.5391 8.50629 28.3469 8.50082 27.8 8.43519C23.8844 8.15082 18.0055 8.15082 18.0055 8.15082H17.9945C17.9945 8.15082 12.1156 8.15082 8.2 8.43519C7.65313 8.50082 6.46094 8.50629 5.39453 9.62191C4.55234 10.4696 4.28437 12.4 4.28437 12.4C4.28437 12.4 4 14.6696 4 16.9336V19.0555C4 21.3196 4.27891 23.5891 4.27891 23.5891C4.27891 23.5891 4.55234 25.5196 5.38906 26.3672C6.45547 27.4828 7.85547 27.4446 8.47891 27.5649C10.7211 27.7782 18 27.8438 18 27.8438C18 27.8438 23.8844 27.8328 27.8 27.5539C28.3469 27.4883 29.5391 27.4828 30.6055 26.3672C31.4477 25.5196 31.7211 23.5891 31.7211 23.5891C31.7211 23.5891 32 21.325 32 19.0555V16.9336C32 14.6696 31.7211 12.4 31.7211 12.4ZM15.107 21.6313V13.7618L22.6703 17.7102L15.107 21.6313Z" fill="#FFFCFA"/>
</svg>
