<svg width="20" height="18" viewBox="0 0 20 18" fill="none" xmlns="http://www.w3.org/2000/svg">
<path fill-rule="evenodd" clip-rule="evenodd" d="M15.7588 3.77718C12.7689 1.227 8.08393 1.03226 4.83394 3.33796C1.61735 5.61996 0.841538 9.60365 2.92151 12.6799C3.05211 12.8731 3.08545 13.116 3.01172 13.3372L2.12623 15.9936L5.54412 15.2664C5.70739 15.2317 5.87759 15.2524 6.02775 15.3253C9.69765 17.107 14.2647 16.179 16.6953 13.2301C19.0924 10.3221 18.7132 6.29712 15.7588 3.77718ZM0.958173 17.749C1.02971 17.7531 1.10053 17.7467 1.16869 17.7309L5.60967 16.786C9.81764 18.6982 15.0047 17.6394 17.8528 14.1842C20.7883 10.6229 20.2879 5.66873 16.7322 2.63593C13.2119 -0.366639 7.76779 -0.582595 3.966 2.11457C0.236393 4.76053 -0.830617 9.45492 1.47496 13.204L0.292705 16.7508C0.269396 16.8168 0.255165 16.8864 0.251194 16.958C0.245973 17.05 0.257977 17.1409 0.28514 17.2264C0.317875 17.3302 0.371757 17.4226 0.440899 17.4999C0.509897 17.5772 0.595714 17.6411 0.695211 17.6852C0.777177 17.7218 0.866123 17.7439 0.958173 17.749Z" fill="#212121"/>
<path fill-rule="evenodd" clip-rule="evenodd" d="M10.0002 8.25001C10.4144 8.25001 10.7502 8.5858 10.7502 9.00001V9.01001C10.7502 9.42422 10.4144 9.76001 10.0002 9.76001C9.58599 9.76001 9.2502 9.42422 9.2502 9.01001V9.00001C9.2502 8.5858 9.58599 8.25001 10.0002 8.25001Z" fill="#212121"/>
<path fill-rule="evenodd" clip-rule="evenodd" d="M6.0002 8.25001C6.41442 8.25001 6.7502 8.5858 6.7502 9.00001V9.01001C6.7502 9.42422 6.41442 9.76001 6.0002 9.76001C5.58599 9.76001 5.2502 9.42422 5.2502 9.01001V9.00001C5.2502 8.5858 5.58599 8.25001 6.0002 8.25001Z" fill="#212121"/>
<path fill-rule="evenodd" clip-rule="evenodd" d="M14.0002 8.25001C14.4144 8.25001 14.7502 8.5858 14.7502 9.00001V9.01001C14.7502 9.42422 14.4144 9.76001 14.0002 9.76001C13.586 9.76001 13.2502 9.42422 13.2502 9.01001V9.00001C13.2502 8.5858 13.586 8.25001 14.0002 8.25001Z" fill="#212121"/>
</svg>
