<svg width="18" height="16" viewBox="0 0 18 16" fill="none" xmlns="http://www.w3.org/2000/svg">
<path d="M15.778 8.8428C16.0723 8.55132 16.0746 8.07645 15.7831 7.78215C15.4916 7.48785 15.0168 7.48556 14.7225 7.77704L15.778 8.8428ZM9.00024 14.4999L8.47248 15.0328C8.76477 15.3223 9.23571 15.3223 9.52801 15.0328L9.00024 14.4999ZM3.27801 7.77704C2.98371 7.48556 2.50884 7.48785 2.21736 7.78215C1.92589 8.07645 1.92818 8.55132 2.22248 8.8428L3.27801 7.77704ZM2.22716 8.84747C2.52401 9.13634 2.99884 9.12987 3.28772 8.83301C3.57659 8.53615 3.57012 8.06132 3.27326 7.77245L2.22716 8.84747ZM9.00021 2.83829L8.39826 3.28568C8.53932 3.47548 8.76164 3.58763 8.99812 3.58829C9.2346 3.58895 9.45754 3.47803 9.59966 3.28902L9.00021 2.83829ZM14.7247 7.77989C14.4291 8.07014 14.4249 8.545 14.7151 8.84051C15.0054 9.13602 15.4802 9.14028 15.7758 8.85003L14.7247 7.77989ZM14.7225 7.77704L8.47248 13.967L9.52801 15.0328L15.778 8.8428L14.7225 7.77704ZM9.52801 13.967L3.27801 7.77704L2.22248 8.8428L8.47248 15.0328L9.52801 13.967ZM3.27326 7.77245C2.35164 6.87563 2.01164 5.53729 2.39345 4.30934L0.961094 3.86397C0.411656 5.63103 0.900932 7.55692 2.22716 8.84747L3.27326 7.77245ZM2.39345 4.30934C2.77526 3.08138 3.81422 2.17181 5.08188 1.95571L4.8298 0.477041C3.00561 0.788015 1.51053 2.09691 0.961094 3.86397L2.39345 4.30934ZM5.08188 1.95571C6.34953 1.73961 7.63117 2.25358 8.39826 3.28568L9.60216 2.3909C8.49829 0.905687 6.654 0.166066 4.8298 0.477041L5.08188 1.95571ZM9.59966 3.28902C10.37 2.26456 11.6489 1.75741 12.9119 1.97553L13.1672 0.497411C11.3496 0.183528 9.50924 0.913332 8.40076 2.38756L9.59966 3.28902ZM12.9119 1.97553C14.175 2.19365 15.2097 3.10035 15.5918 4.32383L17.0236 3.87667C16.4737 2.11606 14.9847 0.811294 13.1672 0.497411L12.9119 1.97553ZM15.5918 4.32383C15.9739 5.54731 15.6391 6.88172 14.7247 7.77989L15.7758 8.85003C17.0916 7.55754 17.5735 5.63728 17.0236 3.87667L15.5918 4.32383Z" fill="#212121"/>
</svg>
