<svg width="18" height="20" viewBox="0 0 18 20" fill="none" xmlns="http://www.w3.org/2000/svg">
<path fill-rule="evenodd" clip-rule="evenodd" d="M7.4093 3.62862C7.50176 3.5686 7.57742 3.4905 7.63377 3.40133C7.71164 3.27812 7.75264 3.13377 7.75014 2.98679C7.75722 2.30252 8.31412 1.75 9.00007 1.75C9.69042 1.75 10.2501 2.30964 10.2501 3C10.2501 3.29002 10.4173 3.55405 10.6795 3.67802C12.7637 4.66358 14.1357 6.7163 14.2501 9.01809V12C14.2501 12.0301 14.2519 12.0602 14.2555 12.0901C14.3509 12.8782 14.6403 13.6178 15.0844 14.25H2.91569C3.35983 13.6178 3.64924 12.8782 3.74463 12.0901C3.74825 12.0602 3.75007 12.0301 3.75007 12V9.01809C3.86413 6.72155 5.23013 4.67295 7.30641 3.68479C7.34229 3.66871 7.37667 3.6499 7.4093 3.62862ZM6.29207 2.51858C3.91977 3.80713 2.37845 6.24728 2.25089 8.96484C2.25034 8.97655 2.25007 8.98827 2.25007 9V11.9524C2.11472 12.9593 1.51596 13.846 0.630504 14.3474C0.334108 14.5152 0.188036 14.8617 0.274821 15.1911C0.361605 15.5205 0.65945 15.75 1.00007 15.75H17.0001C17.3407 15.75 17.6385 15.5205 17.7253 15.1911C17.8121 14.8617 17.666 14.5152 17.3696 14.3474C16.4842 13.846 15.8854 12.9593 15.7501 11.9524V9C15.7501 8.98827 15.7498 8.97655 15.7492 8.96484C15.6217 6.24728 14.0804 3.80713 11.7081 2.51858C11.4804 1.22934 10.3546 0.25 9.00007 0.25C7.64552 0.25 6.51971 1.22934 6.29207 2.51858Z" fill="#212121"/>
<path fill-rule="evenodd" clip-rule="evenodd" d="M6.00007 14.25C6.41428 14.25 6.75007 14.5858 6.75007 15V16C6.75007 17.2426 7.75743 18.25 9.00007 18.25C10.2427 18.25 11.2501 17.2426 11.2501 16V15C11.2501 14.5858 11.5859 14.25 12.0001 14.25C12.4143 14.25 12.7501 14.5858 12.7501 15V16C12.7501 18.0711 11.0711 19.75 9.00007 19.75C6.929 19.75 5.25007 18.0711 5.25007 16V15C5.25007 14.5858 5.58586 14.25 6.00007 14.25Z" fill="#212121"/>
</svg>
