<svg width="40" height="40" viewBox="0 0 40 40" fill="none" xmlns="http://www.w3.org/2000/svg">
<path fill-rule="evenodd" clip-rule="evenodd" d="M20 3.5C10.8873 3.5 3.5 10.8873 3.5 20C3.5 29.1127 10.8873 36.5 20 36.5C29.1127 36.5 36.5 29.1127 36.5 20C36.5 10.8873 29.1127 3.5 20 3.5ZM0.5 20C0.5 9.23045 9.23045 0.5 20 0.5C30.7696 0.5 39.5 9.23045 39.5 20C39.5 30.7696 30.7696 39.5 20 39.5C9.23045 39.5 0.5 30.7696 0.5 20Z" fill="#33691E"/>
<path fill-rule="evenodd" clip-rule="evenodd" d="M27.0607 14.9393C27.6464 15.5251 27.6464 16.4749 27.0607 17.0607L19.0607 25.0607C18.4749 25.6464 17.5251 25.6464 16.9393 25.0607L12.9393 21.0607C12.3536 20.4749 12.3536 19.5251 12.9393 18.9393C13.5251 18.3536 14.4749 18.3536 15.0607 18.9393L18 21.8787L24.9393 14.9393C25.5251 14.3536 26.4749 14.3536 27.0607 14.9393Z" fill="#33691E"/>
</svg>
