<svg width="18" height="16" viewBox="0 0 18 16" fill="none" xmlns="http://www.w3.org/2000/svg">
<path fill-rule="evenodd" clip-rule="evenodd" d="M13.799 3.64764C11.3074 1.5225 7.40328 1.36021 4.69495 3.28163C2.01446 5.18329 1.36795 8.50304 3.10126 11.0666C3.21009 11.2275 3.23787 11.43 3.17643 11.6143L2.43852 13.828L5.28677 13.222C5.42283 13.1931 5.56466 13.2103 5.68979 13.2711C8.74804 14.7558 12.5539 13.9825 14.5794 11.5251C16.577 9.1017 16.261 5.74759 13.799 3.64764ZM1.46514 15.2908C1.52476 15.2942 1.58377 15.2889 1.64058 15.2758L5.34139 14.4884C8.84804 16.0818 13.1706 15.1995 15.544 12.3201C17.9902 9.35238 17.5733 5.22394 14.6102 2.6966C11.6766 0.194461 7.13983 0.0144981 3.97167 2.26214C0.863661 4.4671 -0.0255138 8.37909 1.8958 11.5033L0.910587 14.459C0.891163 14.514 0.879305 14.572 0.875995 14.6316C0.871645 14.7083 0.881648 14.784 0.904283 14.8553C0.931562 14.9418 0.976464 15.0189 1.03408 15.0832C1.09158 15.1477 1.1631 15.2009 1.24601 15.2377C1.31431 15.2682 1.38844 15.2866 1.46514 15.2908Z" fill="#212121"/>
<path fill-rule="evenodd" clip-rule="evenodd" d="M9.00017 7.375C9.34535 7.375 9.62517 7.65483 9.62517 8V8.00834C9.62517 8.35351 9.34535 8.63334 9.00017 8.63334C8.65499 8.63334 8.37517 8.35351 8.37517 8.00834V8C8.37517 7.65483 8.65499 7.375 9.00017 7.375Z" fill="#212121"/>
<path fill-rule="evenodd" clip-rule="evenodd" d="M5.66684 7.375C6.01201 7.375 6.29184 7.65483 6.29184 8V8.00834C6.29184 8.35351 6.01201 8.63334 5.66684 8.63334C5.32166 8.63334 5.04184 8.35351 5.04184 8.00834V8C5.04184 7.65483 5.32166 7.375 5.66684 7.375Z" fill="#212121"/>
<path fill-rule="evenodd" clip-rule="evenodd" d="M12.3335 7.375C12.6787 7.375 12.9585 7.65483 12.9585 8V8.00834C12.9585 8.35351 12.6787 8.63334 12.3335 8.63334C11.9883 8.63334 11.7085 8.35351 11.7085 8.00834V8C11.7085 7.65483 11.9883 7.375 12.3335 7.375Z" fill="#212121"/>
</svg>
