<svg width="16" height="16" viewBox="0 0 16 16" fill="none" xmlns="http://www.w3.org/2000/svg">
<path fill-rule="evenodd" clip-rule="evenodd" d="M8 0.5C8.19943 0.5 8.38157 0.618632 8.46984 0.806016L10.5037 5.12402L15.0512 5.81456C15.2487 5.84455 15.4127 5.98945 15.4744 6.1883C15.536 6.38714 15.4845 6.6054 15.3415 6.75123L12.0461 10.1122L12.8232 14.8582C12.8569 15.0643 12.776 15.2725 12.6145 15.3953C12.4531 15.5181 12.239 15.5342 12.0625 15.4367L8.00461 13.1962L3.93706 15.4369C3.76053 15.5342 3.54662 15.518 3.38527 15.3952C3.22393 15.2723 3.14312 15.0642 3.17684 14.8582L3.95386 10.1122L0.6585 6.75123C0.515519 6.6054 0.464004 6.38714 0.525632 6.1883C0.587261 5.98945 0.751334 5.84455 0.948805 5.81456L5.4963 5.12402L7.53017 0.806016C7.61843 0.618632 7.80057 0.5 8 0.5ZM8 2.2894L6.31401 5.86885C6.23766 6.03094 6.09005 6.14326 5.91932 6.16919L2.15116 6.74139L4.88232 9.52691C5.00598 9.65304 5.06244 9.83488 5.03326 10.0131L4.38913 13.9475L7.76107 12.0899C7.91387 12.0058 8.09643 12.0058 8.24915 12.0902L11.6107 13.9462L10.9667 10.0131C10.9376 9.83488 10.994 9.65304 11.1177 9.52691L13.8488 6.74139L10.0807 6.16919C9.90995 6.14326 9.76234 6.03094 9.68599 5.86885L8 2.2894Z" fill="#9E9E9E"/>
</svg>
