<svg width="12" height="12" viewBox="0 0 12 12" fill="none" xmlns="http://www.w3.org/2000/svg">
<path fill-rule="evenodd" clip-rule="evenodd" d="M8.05921 4.52398C8.23006 4.69483 8.23006 4.97184 8.05921 5.1427L5.72587 7.47603C5.55502 7.64688 5.27801 7.64688 5.10716 7.47603L3.94049 6.30936C3.76963 6.13851 3.76963 5.8615 3.94049 5.69065C4.11134 5.51979 4.38835 5.51979 4.55921 5.69065L5.41651 6.54795L7.44049 4.52398C7.61134 4.35312 7.88835 4.35312 8.05921 4.52398Z" fill="#33691E"/>
<path fill-rule="evenodd" clip-rule="evenodd" d="M6.29389 0.426011C6.26156 0.3966 6.22574 0.372833 6.18776 0.354795C6.12827 0.326473 6.06397 0.312476 5.99984 0.3125C5.9357 0.312476 5.87141 0.326473 5.81192 0.354795C5.77394 0.372834 5.73811 0.3966 5.70579 0.426011C4.42892 1.55377 2.76346 2.14084 1.0615 2.06296C0.860178 2.05375 0.678605 2.18326 0.621765 2.37662C0.0537605 4.30884 0.293635 6.3888 1.28655 8.14101C2.27947 9.89321 3.94053 11.1678 5.88999 11.6735C5.96203 11.6922 6.03765 11.6922 6.10968 11.6735C8.05915 11.1678 9.72021 9.89321 10.7131 8.14101C11.706 6.3888 11.9459 4.30884 11.3779 2.37662C11.3211 2.18326 11.1395 2.05375 10.9382 2.06296C9.23622 2.14084 7.57076 1.55377 6.29389 0.426011ZM5.99984 1.32129C4.68648 2.36915 3.05616 2.9417 1.37554 2.94482C0.989149 4.5568 1.22653 6.26029 2.04782 7.70962C2.90521 9.22267 4.32724 10.3321 5.99984 10.797C7.67244 10.3321 9.09446 9.22267 9.95186 7.70962C10.7731 6.26028 11.0105 4.5568 10.6241 2.94482C8.94351 2.9417 7.3132 2.36915 5.99984 1.32129Z" fill="#33691E"/>
</svg>
