<svg width="18" height="18" viewBox="0 0 18 18" fill="none" xmlns="http://www.w3.org/2000/svg">
<path fill-rule="evenodd" clip-rule="evenodd" d="M11.2499 5C11.2499 4.58579 11.5857 4.25 11.9999 4.25H12.0099C12.4241 4.25 12.7599 4.58579 12.7599 5C12.7599 5.41421 12.4241 5.75 12.0099 5.75H11.9999C11.5857 5.75 11.2499 5.41421 11.2499 5Z" fill="#9E9E9E"/>
<path fill-rule="evenodd" clip-rule="evenodd" d="M0.25 4C0.25 1.92893 1.92893 0.25 4 0.25H14C16.0711 0.25 17.75 1.92893 17.75 4V14C17.75 16.0711 16.0711 17.75 14 17.75H4C1.92893 17.75 0.25 16.0711 0.25 14V4ZM4 1.75C2.75736 1.75 1.75 2.75736 1.75 4V14C1.75 15.2426 2.75736 16.25 4 16.25H14C15.2426 16.25 16.25 15.2426 16.25 14V4C16.25 2.75736 15.2426 1.75 14 1.75H4Z" fill="#9E9E9E"/>
<path fill-rule="evenodd" clip-rule="evenodd" d="M5.52489 8.53573L1.53033 12.5303C1.23744 12.8232 0.762563 12.8232 0.46967 12.5303C0.176777 12.2374 0.176777 11.7625 0.46967 11.4696L4.46967 7.46962L4.47997 7.45952C5.05661 6.90465 5.75341 6.58008 6.5 6.58008C7.24659 6.58008 7.94339 6.90465 8.52003 7.45952L8.53033 7.46962L13.5303 12.4696C13.8232 12.7625 13.8232 13.2374 13.5303 13.5303C13.2374 13.8232 12.7626 13.8232 12.4697 13.5303L7.47511 8.53573C7.12528 8.20097 6.78798 8.08008 6.5 8.08008C6.21202 8.08008 5.87472 8.20097 5.52489 8.53573Z" fill="#9E9E9E"/>
<path fill-rule="evenodd" clip-rule="evenodd" d="M12.5249 10.5357L11.5303 11.5303C11.2374 11.8232 10.7626 11.8232 10.4697 11.5303C10.1768 11.2374 10.1768 10.7625 10.4697 10.4696L11.4697 9.46962L11.48 9.45952C12.0566 8.90465 12.7534 8.58008 13.5 8.58008C14.2466 8.58008 14.9434 8.90465 15.52 9.45952L15.5303 9.46962L17.5303 11.4696C17.8232 11.7625 17.8232 12.2374 17.5303 12.5303C17.2374 12.8232 16.7626 12.8232 16.4697 12.5303L14.4751 10.5357C14.1253 10.201 13.788 10.0801 13.5 10.0801C13.212 10.0801 12.8747 10.201 12.5249 10.5357Z" fill="#9E9E9E"/>
</svg>
