<svg width="18" height="18" viewBox="0 0 18 18" fill="none" xmlns="http://www.w3.org/2000/svg">
<path fill-rule="evenodd" clip-rule="evenodd" d="M9 2.12499C5.20304 2.12499 2.125 5.20303 2.125 8.99999C2.125 12.7969 5.20304 15.875 9 15.875C12.797 15.875 15.875 12.7969 15.875 8.99999C15.875 5.20303 12.797 2.12499 9 2.12499ZM0.875 8.99999C0.875 4.51268 4.51269 0.874992 9 0.874992C13.4873 0.874992 17.125 4.51268 17.125 8.99999C17.125 13.4873 13.4873 17.125 9 17.125C4.51269 17.125 0.875 13.4873 0.875 8.99999Z" fill="#212121"/>
<path fill-rule="evenodd" clip-rule="evenodd" d="M1.37498 6.49999C1.37498 6.15481 1.6548 5.87499 1.99998 5.87499H16C16.3452 5.87499 16.625 6.15481 16.625 6.49999C16.625 6.84517 16.3452 7.12499 16 7.12499H1.99998C1.6548 7.12499 1.37498 6.84517 1.37498 6.49999Z" fill="#212121"/>
<path fill-rule="evenodd" clip-rule="evenodd" d="M1.37498 11.5C1.37498 11.1548 1.6548 10.875 1.99998 10.875H16C16.3452 10.875 16.625 11.1548 16.625 11.5C16.625 11.8452 16.3452 12.125 16 12.125H1.99998C1.6548 12.125 1.37498 11.8452 1.37498 11.5Z" fill="#212121"/>
<path fill-rule="evenodd" clip-rule="evenodd" d="M8.91425 0.969764C9.20708 1.15251 9.29633 1.53804 9.11359 1.83087C6.37574 6.2182 6.37574 11.7818 9.11359 16.1691C9.29633 16.4619 9.20708 16.8475 8.91425 17.0302C8.62141 17.213 8.23588 17.1237 8.05313 16.8309C5.06256 12.0386 5.06256 5.96141 8.05313 1.16911C8.23588 0.876273 8.62141 0.787023 8.91425 0.969764Z" fill="#212121"/>
<path fill-rule="evenodd" clip-rule="evenodd" d="M9.08578 0.969764C9.37862 0.787023 9.76415 0.876273 9.94689 1.16911C12.9375 5.96141 12.9375 12.0386 9.94689 16.8309C9.76415 17.1237 9.37862 17.213 9.08578 17.0302C8.79295 16.8475 8.7037 16.4619 8.88644 16.1691C11.6243 11.7818 11.6243 6.2182 8.88644 1.83087C8.7037 1.53804 8.79295 1.15251 9.08578 0.969764Z" fill="#212121"/>
</svg>
