<svg width="14" height="20" viewBox="0 0 14 20" fill="none" xmlns="http://www.w3.org/2000/svg">
<path fill-rule="evenodd" clip-rule="evenodd" d="M7 1.75C5.20507 1.75 3.75 3.20507 3.75 5C3.75 6.79493 5.20507 8.25 7 8.25C8.79493 8.25 10.25 6.79493 10.25 5C10.25 3.20507 8.79493 1.75 7 1.75ZM2.25 5C2.25 2.37665 4.37665 0.25 7 0.25C9.62335 0.25 11.75 2.37665 11.75 5C11.75 7.62335 9.62335 9.75 7 9.75C4.37665 9.75 2.25 7.62335 2.25 5Z" fill="#212121"/>
<path fill-rule="evenodd" clip-rule="evenodd" d="M5 13.75C3.20507 13.75 1.75 15.2051 1.75 17V19C1.75 19.4142 1.41421 19.75 1 19.75C0.585786 19.75 0.25 19.4142 0.25 19V17C0.25 14.3766 2.37665 12.25 5 12.25H9C11.6234 12.25 13.75 14.3766 13.75 17V19C13.75 19.4142 13.4142 19.75 13 19.75C12.5858 19.75 12.25 19.4142 12.25 19V17C12.25 15.2051 10.7949 13.75 9 13.75H5Z" fill="#212121"/>
</svg>
