<svg width="36" height="36" viewBox="0 0 36 36" fill="none" xmlns="http://www.w3.org/2000/svg">
<g clip-path="url(#clip0_228_938)">
<path d="M32 18C32 10.268 25.732 4 18 4C10.268 4 4 10.268 4 18C4 24.9877 9.11957 30.7796 15.8125 31.8299V22.0469H12.2578V18H15.8125V14.9156C15.8125 11.4069 17.9027 9.46875 21.1005 9.46875C22.6318 9.46875 24.2344 9.74219 24.2344 9.74219V13.1875H22.4691C20.73 13.1875 20.1875 14.2668 20.1875 15.375V18H24.0703L23.4496 22.0469H20.1875V31.8299C26.8804 30.7796 32 24.9877 32 18Z" fill="#FFFCFA"/>
</g>
<defs>
<clipPath id="clip0_228_938">
<rect width="28" height="28" fill="white" transform="translate(4 4)"/>
</clipPath>
</defs>
</svg>
