<svg width="36" height="36" viewBox="0 0 36 36" fill="none" xmlns="http://www.w3.org/2000/svg">
<g clip-path="url(#clip0_228_941)">
<path fill-rule="evenodd" clip-rule="evenodd" d="M10.3122 4H25.6877C29.1739 4 32 6.82609 32 10.3122V25.6877C32 29.1739 29.1739 32 25.6877 32H10.3122C6.82609 32 4 29.1739 4 25.6877V10.3122C4 6.82609 6.82609 4 10.3122 4ZM17.9975 9.10474C23.1451 9.10474 27.3329 12.5032 27.3329 16.6805C27.3329 18.35 26.6845 19.8585 25.3317 21.3416C23.3735 23.5965 18.9941 26.3431 17.9975 26.7622C17.0276 27.1701 17.1408 26.5305 17.1855 26.2782C17.1867 26.2712 17.1879 26.2646 17.189 26.2582C17.2126 26.1182 17.322 25.4594 17.322 25.4594C17.3535 25.2214 17.3859 24.8512 17.2914 24.615C17.1872 24.3551 16.7734 24.2204 16.4689 24.1547C11.9871 23.5624 8.66211 20.4255 8.66211 16.6805C8.66211 12.5032 12.8499 9.10474 17.9975 9.10474Z" fill="#FFFCFA"/>
<path d="M24.2268 19.0929H21.6018C21.5553 19.0929 21.5108 19.0744 21.478 19.0416C21.4452 19.0088 21.4268 18.9643 21.4268 18.9179V14.8447C21.4268 14.7983 21.4452 14.7538 21.478 14.721C21.5108 14.6882 21.5553 14.6697 21.6018 14.6697H24.2268C24.2732 14.6697 24.3177 14.6882 24.3505 14.721C24.3833 14.7538 24.4018 14.7983 24.4018 14.8447V15.5071C24.4018 15.5535 24.3833 15.598 24.3505 15.6309C24.3177 15.6637 24.2732 15.6821 24.2268 15.6821H22.4444V16.369H24.2268C24.2732 16.369 24.3177 16.3874 24.3505 16.4202C24.3833 16.4531 24.4018 16.4976 24.4018 16.544V17.2125C24.4018 17.2589 24.3833 17.3034 24.3505 17.3362C24.3177 17.3691 24.2732 17.3875 24.2268 17.3875H22.4444V18.0752H24.2268C24.2732 18.0752 24.3177 18.0937 24.3505 18.1265C24.3833 18.1593 24.4018 18.2038 24.4018 18.2502V18.9117C24.4026 18.9352 24.3987 18.9586 24.3902 18.9806C24.3818 19.0025 24.3691 19.0226 24.3527 19.0395C24.3364 19.0564 24.3168 19.0698 24.2952 19.079C24.2735 19.0882 24.2503 19.0929 24.2268 19.0929Z" fill="#FFFCFA"/>
<path d="M14.5249 19.0929C14.5713 19.0929 14.6158 19.0744 14.6487 19.0416C14.6815 19.0088 14.6999 18.9643 14.6999 18.9179V18.2564C14.6999 18.21 14.6815 18.1655 14.6487 18.1326C14.6158 18.0998 14.5713 18.0814 14.5249 18.0814H12.7425V14.8439C12.7425 14.7975 12.7241 14.753 12.6913 14.7201C12.6585 14.6873 12.614 14.6689 12.5675 14.6689H11.9025C11.8561 14.6689 11.8116 14.6873 11.7788 14.7201C11.746 14.753 11.7275 14.7975 11.7275 14.8439V18.9153C11.7275 18.9617 11.746 19.0062 11.7788 19.039C11.8116 19.0718 11.8561 19.0903 11.9025 19.0903H14.5275L14.5249 19.0929Z" fill="#FFFCFA"/>
<path d="M16.1037 14.6619H15.4422C15.3436 14.6619 15.2637 14.7418 15.2637 14.8404V18.9144C15.2637 19.0129 15.3436 19.0929 15.4422 19.0929H16.1037C16.2023 19.0929 16.2822 19.0129 16.2822 18.9144V14.8404C16.2822 14.7418 16.2023 14.6619 16.1037 14.6619Z" fill="#FFFCFA"/>
<path d="M20.6108 14.6619H19.9493C19.9029 14.6619 19.8584 14.6803 19.8256 14.7131C19.7928 14.7459 19.7743 14.7905 19.7743 14.8369V17.2571L17.9106 14.7397C17.9063 14.7331 17.9013 14.7269 17.8957 14.7214L17.8852 14.7109L17.8756 14.703H17.8703L17.8607 14.696H17.8554L17.8458 14.6907H17.8397H17.8301H17.8239H17.8134H17.8064H17.7959H17.7889H17.7793H17.1047C17.0583 14.6907 17.0138 14.7092 16.9809 14.742C16.9481 14.7748 16.9297 14.8193 16.9297 14.8657V18.9397C16.9297 18.9862 16.9481 19.0307 16.9809 19.0635C17.0138 19.0963 17.0583 19.1147 17.1047 19.1147H17.7671C17.8135 19.1147 17.858 19.0963 17.8908 19.0635C17.9236 19.0307 17.9421 18.9862 17.9421 18.9397V16.4959L19.8084 19.0159C19.8207 19.0337 19.8361 19.0491 19.8539 19.0614L19.8644 19.0684H19.8697L19.8784 19.0727H19.8872H19.8933H19.9056C19.921 19.0766 19.9369 19.0786 19.9528 19.0789H20.6108C20.6572 19.0789 20.7017 19.0604 20.7346 19.0276C20.7674 18.9948 20.7858 18.9503 20.7858 18.9039V14.8404C20.7863 14.8171 20.7821 14.794 20.7735 14.7723C20.7649 14.7507 20.7521 14.731 20.7358 14.7144C20.7195 14.6977 20.7001 14.6845 20.6786 14.6755C20.6571 14.6665 20.6341 14.6619 20.6108 14.6619Z" fill="#FFFCFA"/>
</g>
<defs>
<clipPath id="clip0_228_941">
<rect width="28" height="28" fill="white" transform="translate(4 4)"/>
</clipPath>
</defs>
</svg>
