<svg width="16" height="16" viewBox="0 0 16 16" fill="none" xmlns="http://www.w3.org/2000/svg">
<path fill-rule="evenodd" clip-rule="evenodd" d="M8.34111 13.4757C8.13125 13.36 7.88037 13.3599 7.6704 13.4754L4.14981 15.4118C3.6216 15.7023 3.00422 15.2331 3.10512 14.6178L3.77767 10.5162C3.81777 10.2717 3.74019 10.0222 3.57025 9.84914L0.718579 6.94526C0.290702 6.50954 0.526576 5.74968 1.11752 5.66009L5.05152 5.06364C5.28614 5.02807 5.48899 4.87395 5.5939 4.65155L7.35435 0.919874C7.61845 0.360043 8.38155 0.360042 8.64565 0.919873L10.4061 4.65155C10.511 4.87395 10.7139 5.02807 10.9485 5.06364L14.8825 5.66009C15.4734 5.74968 15.7093 6.50954 15.2814 6.94526L12.4298 9.84914C12.2598 10.0222 12.1822 10.2717 12.2223 10.5162L12.8946 14.616C12.9955 15.2316 12.3775 15.7009 11.8493 15.4097L8.34111 13.4757Z" fill="#F57F17"/>
</svg>
