<svg width="18" height="18" viewBox="0 0 18 18" fill="none" xmlns="http://www.w3.org/2000/svg">
<path fill-rule="evenodd" clip-rule="evenodd" d="M9 2.125C5.20304 2.125 2.125 5.20304 2.125 9C2.125 12.797 5.20304 15.875 9 15.875C12.797 15.875 15.875 12.797 15.875 9C15.875 5.20304 12.797 2.125 9 2.125ZM0.875 9C0.875 4.51269 4.51269 0.875 9 0.875C13.4873 0.875 17.125 4.51269 17.125 9C17.125 13.4873 13.4873 17.125 9 17.125C4.51269 17.125 0.875 13.4873 0.875 9Z" fill="#FFFCFA"/>
<path fill-rule="evenodd" clip-rule="evenodd" d="M9 5.45833C7.96447 5.45833 7.125 6.2978 7.125 7.33333C7.125 8.36887 7.96447 9.20833 9 9.20833C10.0355 9.20833 10.875 8.36887 10.875 7.33333C10.875 6.2978 10.0355 5.45833 9 5.45833ZM5.875 7.33333C5.875 5.60744 7.27411 4.20833 9 4.20833C10.7259 4.20833 12.125 5.60744 12.125 7.33333C12.125 9.05922 10.7259 10.4583 9 10.4583C7.27411 10.4583 5.875 9.05922 5.875 7.33333Z" fill="#FFFCFA"/>
<path fill-rule="evenodd" clip-rule="evenodd" d="M13.2628 14.8914C12.92 13.744 11.8644 12.9579 10.6669 12.9583H7.33331C6.13741 12.958 5.08266 13.742 4.73854 14.8873C4.63921 15.2179 4.29071 15.4054 3.96013 15.3061C3.62955 15.2067 3.44208 14.8582 3.54141 14.5277C4.04433 12.8538 5.58553 11.7079 7.33331 11.7083H10.6664C12.4166 11.7078 13.9595 12.8567 14.4605 14.5336C14.5593 14.8643 14.3713 15.2125 14.0405 15.3113C13.7098 15.4102 13.3616 15.2221 13.2628 14.8914Z" fill="#FFFCFA"/>
</svg>
