<svg width="16" height="17" viewBox="0 0 16 17" fill="none" xmlns="http://www.w3.org/2000/svg">
<path fill-rule="evenodd" clip-rule="evenodd" d="M1.33301 11.5417C1.67819 11.5417 1.95801 11.8215 1.95801 12.1667V13.8333C1.95801 14.4086 2.42438 14.875 2.99967 14.875H12.9997C13.575 14.875 14.0413 14.4086 14.0413 13.8333V12.1667C14.0413 11.8215 14.3212 11.5417 14.6663 11.5417C15.0115 11.5417 15.2913 11.8215 15.2913 12.1667V13.8333C15.2913 15.099 14.2653 16.125 12.9997 16.125H2.99967C1.73402 16.125 0.708008 15.099 0.708008 13.8333V12.1667C0.708008 11.8215 0.98783 11.5417 1.33301 11.5417Z" fill="#FFFCFA"/>
<path fill-rule="evenodd" clip-rule="evenodd" d="M7.55773 0.891402C7.80181 0.647324 8.19754 0.647324 8.44162 0.891402L12.6083 5.05807C12.8524 5.30215 12.8524 5.69787 12.6083 5.94195C12.3642 6.18603 11.9685 6.18603 11.7244 5.94195L7.99967 2.21723L4.27495 5.94195C4.03087 6.18603 3.63514 6.18603 3.39107 5.94195C3.14699 5.69787 3.14699 5.30215 3.39107 5.05807L7.55773 0.891402Z" fill="#FFFCFA"/>
<path fill-rule="evenodd" clip-rule="evenodd" d="M7.99967 0.708344C8.34485 0.708344 8.62467 0.988166 8.62467 1.33334V11.3333C8.62467 11.6785 8.34485 11.9583 7.99967 11.9583C7.6545 11.9583 7.37467 11.6785 7.37467 11.3333V1.33334C7.37467 0.988166 7.6545 0.708344 7.99967 0.708344Z" fill="#FFFCFA"/>
</svg>
